<svg version="1.1" viewBox="0.0 0.0 640.1443569553805 531.2782152230972" fill="none" stroke="none" stroke-linecap="square" stroke-miterlimit="10" xmlns:xlink="http://www.w3.org/1999/xlink" xmlns="http://www.w3.org/2000/svg"><clipPath id="p.0"><path d="m0 0l640.14435 0l0 531.2782l-640.14435 0l0 -531.2782z" clip-rule="nonzero"/></clipPath><g clip-path="url(#p.0)"><path fill="#000000" fill-opacity="0.0" d="m0 0l640.14435 0l0 531.2782l-640.14435 0z" fill-rule="evenodd"/><path fill="#000000" d="m208.51369 246.81715l0 0c32.84137 -59.68155 109.509964 -80.523224 171.2441 -46.551193l0 0c29.645782 16.31395 51.812347 43.344894 61.62329 75.14633c9.810974 31.801453 6.4626465 65.7684 -9.308319 94.42847l0 0c-32.8414 59.68155 -109.50998 80.523224 -171.24411 46.551178l0 0c-61.73413 -33.972015 -85.15633 -109.89325 -52.314957 -169.57478z" fill-rule="evenodd"/><path fill="#000000" d="m203.08345 194.63556c-16.45639 -14.007233 -20.905243 -36.911148 -10.821976 -55.714676c10.083267 -18.80352 32.152054 -28.75772 53.68318 -24.213974c21.531113 4.5437546 37.086777 22.437897 37.839767 43.528214z" fill-rule="evenodd"/><path stroke="#000000" stroke-width="1.0" stroke-linejoin="round" stroke-linecap="butt" d="m203.08345 194.63556c-16.45639 -14.007233 -20.905243 -36.911148 -10.821976 -55.714676c10.083267 -18.80352 32.152054 -28.75772 53.68318 -24.213974c21.531113 4.5437546 37.086777 22.437897 37.839767 43.528214z" fill-rule="evenodd"/><path fill="#000000" d="m145.14583 158.60434l0 0c-9.441177 -19.458054 -3.6739807 -44.37992 15.040466 -64.994545c18.714447 -20.614616 47.393494 -33.636475 74.79297 -33.96011c27.39949 -0.32363892 49.152542 12.102528 56.730515 32.40658l-15.421448 6.5320206l0 0c-5.1533203 -14.729843 -21.65184 -23.299797 -43.000366 -22.335999c-21.348541 0.9637985 -44.127716 11.306976 -59.36972 26.957588c-15.242004 15.650612 -20.505554 34.10192 -13.718475 48.089928z" fill-rule="evenodd"/><path stroke="#000000" stroke-width="1.0" stroke-linejoin="round" stroke-linecap="butt" d="m145.14583 158.60434l0 0c-9.441177 -19.458054 -3.6739807 -44.37992 15.040466 -64.994545c18.714447 -20.614616 47.393494 -33.636475 74.79297 -33.96011c27.39949 -0.32363892 49.152542 12.102528 56.730515 32.40658l-15.421448 6.5320206l0 0c-5.1533203 -14.729843 -21.65184 -23.299797 -43.000366 -22.335999c-21.348541 0.9637985 -44.127716 11.306976 -59.36972 26.957588c-15.242004 15.650612 -20.505554 34.10192 -13.718475 48.089928z" fill-rule="evenodd"/><path fill="#000000" d="m355.75485 153.17871c2.1029663 -21.513977 18.368683 -38.244904 39.566437 -40.698013c21.197754 -2.4531097 41.97345 9.991188 50.536987 30.270798c8.563507 20.279602 2.7518616 43.27234 -14.136841 55.9299z" fill-rule="evenodd"/><path stroke="#000000" stroke-width="1.0" stroke-linejoin="round" stroke-linecap="butt" d="m355.75485 153.17871c2.1029663 -21.513977 18.368683 -38.244904 39.566437 -40.698013c21.197754 -2.4531097 41.97345 9.991188 50.536987 30.270798c8.563507 20.279602 2.7518616 43.27234 -14.136841 55.9299z" fill-rule="evenodd"/><path fill="#000000" d="m358.41925 84.40748l0 0c10.5868225 -18.85939 34.34317 -28.350166 61.954895 -24.751278c27.611725 3.5988922 54.6781 19.713856 70.58725 42.026707c15.909119 22.312859 18.125427 47.26741 5.7799683 65.07973l-14.166626 -8.932877l0 0c9.152832 -12.639481 6.7698975 -31.078476 -6.210602 -48.057785c-12.98053 -16.97931 -34.479614 -29.779373 -56.033295 -33.360962c-21.55371 -3.5815964 -39.70981 2.6289444 -47.320465 16.1866z" fill-rule="evenodd"/><path stroke="#000000" stroke-width="1.0" stroke-linejoin="round" stroke-linecap="butt" d="m358.41925 84.40748l0 0c10.5868225 -18.85939 34.34317 -28.350166 61.954895 -24.751278c27.611725 3.5988922 54.6781 19.713856 70.58725 42.026707c15.909119 22.312859 18.125427 47.26741 5.7799683 65.07973l-14.166626 -8.932877l0 0c9.152832 -12.639481 6.7698975 -31.078476 -6.210602 -48.057785c-12.98053 -16.97931 -34.479614 -29.779373 -56.033295 -33.360962c-21.55371 -3.5815964 -39.70981 2.6289444 -47.320465 16.1866z" fill-rule="evenodd"/><path fill="#000000" d="m466.0089 244.9771c18.585052 -11.031784 41.69403 -7.818619 56.21283 7.8160553c14.518799 15.634644 16.780334 39.741943 5.5012817 58.641235c-11.279053 18.899323 -33.24994 27.8172 -53.444458 21.69284z" fill-rule="evenodd"/><path stroke="#000000" stroke-width="1.0" stroke-linejoin="round" stroke-linecap="butt" d="m466.0089 244.9771c18.585052 -11.031784 41.69403 -7.818619 56.21283 7.8160553c14.518799 15.634644 16.780334 39.741943 5.5012817 58.641235c-11.279053 18.899323 -33.24994 27.8172 -53.444458 21.69284z" fill-rule="evenodd"/><path fill="#000000" d="m523.04224 197.19939l0 0c21.467163 -2.6193542 43.174377 10.918152 56.6109 35.304886c13.436523 24.386719 16.460876 55.735992 7.887329 81.756744c-8.573547 26.020721 -27.378601 42.565826 -49.042236 43.1485l-1.1815186 -16.704895l0 0c15.604614 -0.09713745 29.058777 -12.922852 35.065735 -33.427917c6.006897 -20.505035 3.6045532 -45.40515 -6.2613525 -64.89751c-9.865906 -19.49237 -25.615112 -30.454971 -41.047424 -28.57196z" fill-rule="evenodd"/><path stroke="#000000" stroke-width="1.0" stroke-linejoin="round" stroke-linecap="butt" d="m523.04224 197.19939l0 0c21.467163 -2.6193542 43.174377 10.918152 56.6109 35.304886c13.436523 24.386719 16.460876 55.735992 7.887329 81.756744c-8.573547 26.020721 -27.378601 42.565826 -49.042236 43.1485l-1.1815186 -16.704895l0 0c15.604614 -0.09713745 29.058777 -12.922852 35.065735 -33.427917c6.006897 -20.505035 3.6045532 -45.40515 -6.2613525 -64.89751c-9.865906 -19.49237 -25.615112 -30.454971 -41.047424 -28.57196z" fill-rule="evenodd"/><path fill="#000000" d="m162.01868 341.07773l0 0c-20.534088 6.746063 -42.398506 -1.3972473 -53.185066 -19.808533c-10.78656 -18.411316 -7.770752 -42.440247 7.3359146 -58.450256c15.106674 -16.01001 38.48854 -19.95723 56.87625 -9.601593z" fill-rule="evenodd"/><path stroke="#000000" stroke-width="1.0" stroke-linejoin="round" stroke-linecap="butt" d="m162.01868 341.07773l0 0c-20.534088 6.746063 -42.398506 -1.3972473 -53.185066 -19.808533c-10.78656 -18.411316 -7.770752 -42.440247 7.3359146 -58.450256c15.106674 -16.01001 38.48854 -19.95723 56.87625 -9.601593z" fill-rule="evenodd"/><path fill="#000000" d="m98.677505 373.91495l0 0c-21.530487 -2.0897217 -39.793465 -20.008118 -47.628613 -46.72998c-7.835144 -26.721863 -3.9937134 -57.988342 10.018192 -81.54083c14.0119095 -23.55249 35.961105 -35.637283 57.242035 -31.516312l-2.4669952 16.568268c-15.259026 -3.2833252 -31.176888 6.3279266 -41.486984 25.049942c-10.310089 18.722015 -13.361065 43.556152 -7.951805 64.72562c5.409256 21.169434 18.412361 35.28354 33.890198 36.785797z" fill-rule="evenodd"/><path stroke="#000000" stroke-width="1.0" stroke-linejoin="round" stroke-linecap="butt" d="m98.677505 373.91495l0 0c-21.530487 -2.0897217 -39.793465 -20.008118 -47.628613 -46.72998c-7.835144 -26.721863 -3.9937134 -57.988342 10.018192 -81.54083c14.0119095 -23.55249 35.961105 -35.637283 57.242035 -31.516312l-2.4669952 16.568268c-15.259026 -3.2833252 -31.176888 6.3279266 -41.486984 25.049942c-10.310089 18.722015 -13.361065 43.556152 -7.951805 64.72562c5.409256 21.169434 18.412361 35.28354 33.890198 36.785797z" fill-rule="evenodd"/></g></svg>